<svg xmlns="http://www.w3.org/2000/svg" width="11.25" height="11.25" viewBox="0 0 11.25 11.25">
  <g id="calendar" transform="translate(-0.875 0.125)">
    <path id="Path_182" data-name="Path 182" d="M9.582.859H8.594V.344a.344.344,0,1,0-.687,0V.859H3.094V.344a.344.344,0,1,0-.687,0V.859H1.418A1.42,1.42,0,0,0,0,2.277v7.3A1.42,1.42,0,0,0,1.418,11H9.582A1.42,1.42,0,0,0,11,9.582v-7.3A1.42,1.42,0,0,0,9.582.859Zm-8.164.688h.988v.344a.344.344,0,1,0,.687,0V1.547H7.906v.344a.344.344,0,1,0,.687,0V1.547h.988a.731.731,0,0,1,.73.73v.816H.687V2.277A.731.731,0,0,1,1.418,1.547Zm8.164,8.766H1.418a.731.731,0,0,1-.73-.73v-5.8h9.625v5.8A.731.731,0,0,1,9.582,10.313Z" transform="translate(1)" fill="#455de6" stroke="#455de6" stroke-width="0.25"/>
  </g>
</svg>
